
Cover:  
http://www.shotpix.com/images/71304502124109278279.jpg


Release Title: Brokeback Mountain (2005)


Ratings: 7.7/10 | http://www.imdb.com/title/tt0388795/


Plot: The story of a forbidden and secretive relationship between two cowboys and their lives over the years.

Director: Ang Lee

Writers: Annie Proulx, Larry McMurtry

Stars: Jake Gyllenhaal, Heath Ledger, Anne Hathaway and Michelle Williams.

					


General

Format                         : MPEG-4
File size                      : 868 MiB
Duration                       : 2h 14mn
Overall bit rate mode          : Variable
Overall bit rate               : 902 Kbps

Source                         : 720p-MZON3 (Thanks!)

[code]Video
ID                             : 1
Format                         : AVC
Format/Info                    : Advanced Video Codec
Format settings, ReFrames      : 3 frames
Codec ID                       : avc1
Codec ID/Info                  : Advanced Video Coding
Duration                       : 2h 14mn
Bit rate mode                  : Variable
Bit rate                       : 802 Kbps
Maximum bit rate               : 50.0 Mbps
Width                          : 1 280 pixels
Height                         : 688 pixels
Display aspect ratio           : 1.860
Frame rate mode                : Variable
Frame rate                     : 23.976 fps
Bit depth                      : 8 bits
Stream size                    : 771 MiB (89%)

[code]Audio
ID                             : 2
Format                         : AAC
Format/Info                    : Advanced Audio Codec
Format profile                 : LC
Codec ID                       : 40
Duration                       : 2h 14mn
Bit rate mode                  : Variable
Bit rate                       : 96.0 Kbps
Maximum bit rate               : 186 Kbps
Channel(s)                     : 2 channels
Channel positions              : Front: L R
Sampling rate                  : 48.0 KHz
Stream size                    : 92.2 MiB (11%)
Language                       : English

Subtitles                      : Yes (English)






Screens:

 
http://www.shotpix.com/images/76193604851986889161.jpg 
http://www.shotpix.com/images/72557872261985094036.jpg 
http://www.shotpix.com/images/96685082608825518317.jpg 
http://www.shotpix.com/images/47002185736210717732.jpg 
http://www.shotpix.com/images/40772972166093892766.jpg


Thumbs:
 
http://www.shotpix.com/images/87355949347471362347.jpg

Sample:



------------------------------------------------------------------------


Notes:

* Best played on VLC Media Player.
* Install shark007 codecs in case of any kind of problem in playback (For non-VLC Media Player users).
* Alternatively, install Core AVC codecs, the fastest decoder that there is coupled with Community Center Codec Pack and play on Windows Media Player Classic.
* Read NFO
* Help in seeding this torrent as much as you can. 



Greets to: VYTO, srkfan, MgB, staff members at ExtraTorrent, TPB,KAT, 1337x, PublicHD, Ahashare, SilverTorrent, TorrentMafia, P2PDL and all others


Encoder Notes: Looking For Early Access To Anything You Can Provide DVDScr, R5, DVDRips, BluRay, Direct Audio, Early Music
Releases, Seedboxes, Links, Dedicated Servers, Advance / Promo CDs/DVDs. If You Got anything to 
offer contact me at "contact@tinym.eu"

                                      Enjoy! 